<svg xmlns="http://www.w3.org/2000/svg" viewBox="0 0 1200 760" role="img" aria-labelledby="title desc"><title id="title">Buyer path visual</title><desc id="desc">Abstract cards showing the path from first impression to action.</desc><defs><linearGradient id="bg" x1="0" y1="0" x2="1" y2="1"><stop stop-color="#fff"/><stop offset=".55" stop-color="#f7fbff"/><stop offset="1" stop-color="#f6f1ff"/></linearGradient><linearGradient id="a" x1="0" y1="0" x2="1" y2="1"><stop stop-color="#0071e3"/><stop offset="1" stop-color="#533afd"/></linearGradient><filter id="s" x="-20%" y="-20%" width="140%" height="140%"><feDropShadow dx="0" dy="26" stdDeviation="30" flood-color="#1d1d1f" flood-opacity=".15"/></filter></defs><rect width="1200" height="760" rx="56" fill="url(#bg)"/><circle cx="150" cy="120" r="150" fill="#0071e3" opacity=".09"/><circle cx="1030" cy="610" r="180" fill="#533afd" opacity=".09"/><g filter="url(#s)"><rect x="120" y="160" width="270" height="360" rx="34" fill="#fff" stroke="#d9ddea"/><circle cx="255" cy="255" r="62" fill="url(#a)" opacity=".14"/><path d="M220 256l28 28 54-66" fill="none" stroke="url(#a)" stroke-width="16" stroke-linecap="round" stroke-linejoin="round"/><rect x="170" y="380" width="170" height="16" rx="8" fill="#1d1d1f" opacity=".14"/><rect x="190" y="420" width="130" height="12" rx="6" fill="#615d59" opacity=".13"/></g><g filter="url(#s)"><rect x="465" y="110" width="270" height="460" rx="34" fill="#fff" stroke="#d9ddea"/><rect x="515" y="170" width="170" height="130" rx="28" fill="#eef4ff"/><path d="M552 245c32-40 62-34 92-6" fill="none" stroke="url(#a)" stroke-width="13" stroke-linecap="round"/><rect x="520" y="350" width="160" height="16" rx="8" fill="#1d1d1f" opacity=".14"/><rect x="520" y="390" width="120" height="12" rx="6" fill="#615d59" opacity=".13"/><rect x="520" y="430" width="180" height="42" rx="21" fill="url(#a)" opacity=".92"/></g><g filter="url(#s)"><rect x="810" y="210" width="270" height="360" rx="34" fill="#fff" stroke="#d9ddea"/><path d="M875 430h145" stroke="url(#a)" stroke-width="18" stroke-linecap="round"/><path d="M1000 398l38 32-38 32" fill="none" stroke="url(#a)" stroke-width="18" stroke-linecap="round" stroke-linejoin="round"/><rect x="860" y="270" width="170" height="16" rx="8" fill="#1d1d1f" opacity=".14"/><rect x="860" y="310" width="130" height="12" rx="6" fill="#615d59" opacity=".13"/></g></svg>