<svg xmlns="http://www.w3.org/2000/svg" viewBox="0 0 1200 760" role="img" aria-labelledby="title desc"><title id="title">Website request form visual</title><desc id="desc">Abstract contact form and approval check for requesting a website review.</desc><defs><linearGradient id="bg" x1="0" y1="0" x2="1" y2="1"><stop stop-color="#fff"/><stop offset=".55" stop-color="#f7fbff"/><stop offset="1" stop-color="#f6f1ff"/></linearGradient><linearGradient id="a" x1="0" y1="0" x2="1" y2="1"><stop stop-color="#533afd"/><stop offset="1" stop-color="#0071e3"/></linearGradient><filter id="s" x="-20%" y="-20%" width="140%" height="140%"><feDropShadow dx="0" dy="26" stdDeviation="30" flood-color="#1d1d1f" flood-opacity=".15"/></filter></defs><rect width="1200" height="760" rx="56" fill="url(#bg)"/><circle cx="150" cy="120" r="150" fill="#533afd" opacity=".09"/><circle cx="1030" cy="610" r="180" fill="#0071e3" opacity=".09"/><g filter="url(#s)"><rect x="170" y="120" width="520" height="520" rx="38" fill="#fff" stroke="#d9ddea"/><rect x="230" y="190" width="270" height="18" rx="9" fill="#1d1d1f" opacity=".16"/><rect x="230" y="250" width="380" height="54" rx="18" fill="#fbfaf8" stroke="#e4e0dc"/><rect x="230" y="332" width="380" height="54" rx="18" fill="#fbfaf8" stroke="#e4e0dc"/><rect x="230" y="414" width="380" height="94" rx="18" fill="#fbfaf8" stroke="#e4e0dc"/><rect x="230" y="544" width="190" height="48" rx="24" fill="url(#a)"/></g><g transform="translate(710 185)" filter="url(#s)"><rect width="300" height="330" rx="34" fill="#eef4ff" stroke="#cdd8f4"/><path d="M78 154l48 48 98-122" fill="none" stroke="url(#a)" stroke-width="24" stroke-linecap="round" stroke-linejoin="round"/><circle cx="96" cy="82" r="34" fill="#fff" opacity=".9"/><circle cx="208" cy="242" r="48" fill="#fff" opacity=".9"/></g></svg>